<svg id="LinkedIn" xmlns="http://www.w3.org/2000/svg" width="32" height="32.001" viewBox="0 0 32 32.001">
  <g id="Layer_1" data-name="Layer 1" transform="translate(0 0.001)">
    <path id="Path_424" data-name="Path 424" d="M7.23,32H.51V10.67H7.23ZM3.87,7.71A3.79,3.79,0,0,1,0,3.86,3.8,3.8,0,0,1,3.87,0,3.81,3.81,0,0,1,7.75,3.86,3.8,3.8,0,0,1,3.87,7.71ZM32,32H25.28V20.37c0-3.44-1.46-4.5-3.35-4.5S18,17.37,18,20.46V32H11.27V10.69h6.46v3h.08a7.34,7.34,0,0,1,6.39-3.55c3.75,0,7.8,2.22,7.8,8.74Z"/>
  </g>
</svg>
