<svg id="Pinterst" xmlns="http://www.w3.org/2000/svg" width="24.012" height="24.001" viewBox="0 0 24.012 24.001">
  <g id="Layer_1" data-name="Layer 1" transform="translate(0 0)">
    <path id="Path_425" data-name="Path 425" d="M12,0A12,12,0,0,0,7.183,23a10.311,10.311,0,0,1,.21-2.745c.225-.975,1.545-6.54,1.545-6.54a4.5,4.5,0,0,1-.39-1.9c0-1.778,1.035-3.105,2.318-3.105a1.605,1.605,0,0,1,1.62,1.793,26.025,26.025,0,0,1-1.065,4.26,1.86,1.86,0,0,0,1.9,2.31c2.25,0,3.8-2.918,3.8-6.383,0-2.625-1.77-4.6-4.988-4.6a5.678,5.678,0,0,0-5.911,5.738,3.472,3.472,0,0,0,.75,2.355.577.577,0,0,1,.173.675c-.053.218-.188.75-.24.96a.413.413,0,0,1-.6.3c-1.68-.683-2.46-2.52-2.46-4.583,0-3.413,2.873-7.5,8.581-7.5,4.576,0,7.591,3.315,7.591,6.878,0,4.7-2.618,8.25-6.473,8.25a3.443,3.443,0,0,1-2.933-1.5s-.7,2.768-.84,3.3a10.245,10.245,0,0,1-1.208,2.565A11.86,11.86,0,0,0,12,24,12,12,0,1,0,12,0Z" transform="translate(0.012 0)"/>
  </g>
</svg>
