<svg id="Twitter" xmlns="http://www.w3.org/2000/svg" width="24" height="19.07" viewBox="0 0 24 19.07">
  <g id="Layer_1" data-name="Layer 1" transform="translate(0 0)">
    <path id="twitter-icon" d="M24,2.25a10.122,10.122,0,0,1-2.827.731A4.889,4.889,0,0,0,23.34.349a10.09,10.09,0,0,1-3.09,1.163A5.018,5.018,0,0,0,14.325.561,4.764,4.764,0,0,0,11.858,5.9,14.049,14.049,0,0,1,1.672.875a4.741,4.741,0,0,0,1.5,6.415,4.939,4.939,0,0,1-2.25-.6A4.828,4.828,0,0,0,4.867,11.46a5.133,5.133,0,0,1-2.25.08,4.914,4.914,0,0,0,4.6,3.336A10.1,10.1,0,0,1,0,16.866,14.206,14.206,0,0,0,7.545,19.06,13.729,13.729,0,0,0,21.54,4.774,9.8,9.8,0,0,0,24,2.25Z" transform="translate(0 0.01)"/>
  </g>
</svg>
