<svg id="Layer_2" data-name="Layer 2" xmlns="http://www.w3.org/2000/svg" width="32.002" height="22.4" viewBox="0 0 32.002 22.4">
  <g id="YouTube">
    <path id="Path_426" data-name="Path 426" d="M31.33,3.5A4,4,0,0,0,28.5.67C26,0,16,0,16,0S6,0,3.5.67A4,4,0,0,0,.67,3.5,41.51,41.51,0,0,0,0,11.2a41.51,41.51,0,0,0,.67,7.7A4,4,0,0,0,3.5,21.73C6,22.4,16,22.4,16,22.4s10,0,12.5-.67a4,4,0,0,0,2.83-2.83A41.51,41.51,0,0,0,32,11.2a41.51,41.51,0,0,0-.67-7.7ZM12.8,16V6.4l8.31,4.8Z" transform="translate(0.001)" />
  </g>
</svg>
