<svg xmlns="http://www.w3.org/2000/svg" width="40.732" height="36.206" viewBox="0 0 40.732 36.206">
  <path id="address" d="M20.366,0a8.91,8.91,0,0,0-8.91,8.91c0,3.978,5.823,11.23,8.054,13.862a1.115,1.115,0,0,0,1.711,0c2.231-2.632,8.054-9.883,8.054-13.862A8.91,8.91,0,0,0,20.366,0Zm0,11.88a2.97,2.97,0,1,1,2.97-2.97A2.97,2.97,0,0,1,20.366,11.88ZM1.423,15.271A2.263,2.263,0,0,0,0,17.372v17.7a1.132,1.132,0,0,0,1.551,1.051l9.763-4.444V15.2a21.415,21.415,0,0,1-1.5-3.283ZM20.366,25.434a3.379,3.379,0,0,1-2.582-1.2c-1.39-1.641-2.869-3.509-4.207-5.425V31.68l13.577,4.526V18.81c-1.338,1.916-2.816,3.785-4.207,5.425A3.38,3.38,0,0,1,20.366,25.434ZM39.18,11.4,29.418,15.84V36.206l9.892-3.957a2.263,2.263,0,0,0,1.423-2.1v-17.7A1.132,1.132,0,0,0,39.18,11.4Z" fill="#fff"/>
</svg>
