<svg xmlns="http://www.w3.org/2000/svg" width="47.257" height="47.231" viewBox="0 0 47.257 47.231">
  <g id="advice" transform="translate(-17.25 -17.3)">
    <path id="Path_17" data-name="Path 17" d="M64.247,59.186a8.188,8.188,0,0,0-11.577,0L49.626,62.23A4.325,4.325,0,0,0,45.3,57.921H33.879a3.681,3.681,0,0,0-2.621,1.086l-7,7-1.028-1.028a.884.884,0,0,0-1.25,0l-4.473,4.473a.884.884,0,0,0,0,1.251l13.1,13.1a.884.884,0,0,0,1.251,0l4.473-4.473a.884.884,0,0,0,0-1.25l-.781-.781,3.092-3.092a1.13,1.13,0,0,1,.8-.332h9.416A4.672,4.672,0,0,0,52.189,72.5L64.248,60.437a.884.884,0,0,0,0-1.251ZM31.235,81.927,19.385,70.077l3.223-3.225L34.459,78.7Zm19.7-10.681a2.954,2.954,0,0,1-2.072.859H39.448a2.885,2.885,0,0,0-2.054.851L34.3,76.046l-8.779-8.8,6.985-6.986a1.926,1.926,0,0,1,1.37-.567H45.3a2.557,2.557,0,0,1,2.544,2.81,2.658,2.658,0,0,1-2.692,2.3h-5.58a.884.884,0,1,0,0,1.769h7.845a.885.885,0,0,0,.626-.259l5.876-5.875a6.419,6.419,0,0,1,8.408-.583Z" transform="translate(0 -19.531)" fill="#fff"/>
    <path id="Path_18" data-name="Path 18" d="M44.551,30.946H58.007l4.9,2.871a.885.885,0,0,0,1.331-.764V20.231A2.935,2.935,0,0,0,61.309,17.3H44.551a2.935,2.935,0,0,0-2.931,2.931v7.783a2.935,2.935,0,0,0,2.931,2.931ZM43.389,20.231a1.162,1.162,0,0,1,1.162-1.162h16.76a1.162,1.162,0,0,1,1.162,1.162v7.745c-.005.037-.01.074-.012.112a.851.851,0,0,0,.012.206V31.51L58.693,29.3a.877.877,0,0,0-.446-.121h-13.7a1.162,1.162,0,0,1-1.162-1.162Z" transform="translate(-12.053)" fill="#fff"/>
    <path id="Path_19" data-name="Path 19" d="M62.891,30.159a1.579,1.579,0,1,0-1.579-1.579A1.579,1.579,0,0,0,62.891,30.159Zm0-1.769a.19.19,0,1,1-.19.19A.19.19,0,0,1,62.891,28.39Z" transform="translate(-21.792 -4.797)" fill="#fff"/>
    <path id="Path_20" data-name="Path 20" d="M72.829,30.159a1.579,1.579,0,1,0-1.579-1.579A1.579,1.579,0,0,0,72.829,30.159Zm0-1.769a.19.19,0,1,1-.19.19A.19.19,0,0,1,72.829,28.39Z" transform="translate(-26.708 -4.797)" fill="#fff"/>
    <path id="Path_21" data-name="Path 21" d="M52.954,30.159a1.579,1.579,0,1,0-1.579-1.579A1.579,1.579,0,0,0,52.954,30.159Zm0-1.769a.19.19,0,1,1-.19.19A.19.19,0,0,1,52.954,28.39Z" transform="translate(-16.878 -4.797)" fill="#fff"/>
  </g>
</svg>
