<svg xmlns="http://www.w3.org/2000/svg" width="62.245" height="79.693" viewBox="0 0 62.245 79.693">
  <path id="award" d="M35.875,79.693a1.128,1.128,0,0,1-.136-.008h-.012a1.044,1.044,0,0,1-.14-.027h0a1.145,1.145,0,0,1-.521-.3l0,0,0,0,0,0L19.407,63.28l0,0h0l0,0a1.142,1.142,0,0,1-.281-.5h0v0a.006.006,0,0,0,0,0,1.128,1.128,0,0,1-.03-.166h0V62.6h0a1.215,1.215,0,0,1-.006-.123V1.143A1.143,1.143,0,0,1,20.227,0H80.186a1.143,1.143,0,0,1,1.143,1.143V78.55a1.143,1.143,0,0,1-1.143,1.143H35.875Zm1.143-2.286H79.041V2.286H21.369V61.339H35.875a1.143,1.143,0,0,1,1.143,1.143V77.407ZM22.935,63.625l11.8,12.112V63.625Zm49.64-7.1H28.05a1.143,1.143,0,1,1,0-2.286H72.575a1.143,1.143,0,0,1,0,2.286Zm0-5.867H28.05a1.143,1.143,0,1,1,0-2.286H72.575a1.143,1.143,0,0,1,0,2.286Zm-8.782-8.17a1.143,1.143,0,0,1-1.143-1.117l-.043-1.892-7.856-1.226a1.142,1.142,0,0,1-.931-1.413l3-11.721a10.724,10.724,0,1,1,18.1-8.612h0a10.709,10.709,0,0,1-3.2,8.535l3.108,14.7a1.143,1.143,0,0,1-.962,1.369l-9.923,1.365A1.009,1.009,0,0,1,63.792,42.491Zm.84-14.395.273,11.945,7.437-1.023L69.716,26.594A10.673,10.673,0,0,1,65.1,28.068C64.943,28.081,64.787,28.089,64.633,28.1Zm-8.287,8.1,6.044.943.149-.64-.2-8.558A10.68,10.68,0,0,1,58.8,26.619ZM64.239,8.935q-.342,0-.687.028A8.44,8.44,0,1,0,72.646,16.7h0A8.453,8.453,0,0,0,64.239,8.935ZM46.416,27.073H28.05a1.143,1.143,0,1,1,0-2.286H46.417a1.143,1.143,0,1,1,0,2.286Zm0-6.919H28.05a1.143,1.143,0,1,1,0-2.286H46.417a1.143,1.143,0,1,1,0,2.286Zm0-7.339H28.05a1.143,1.143,0,1,1,0-2.286H46.417a1.143,1.143,0,1,1,0,2.286Z" transform="translate(-19.084)"/>
</svg>
