<svg id="business-report" xmlns="http://www.w3.org/2000/svg" width="47.775" height="44.603" viewBox="0 0 47.775 44.603">
  <path id="Path_6" data-name="Path 6" d="M43.576,17H4.2A4.2,4.2,0,0,0,0,21.2V48.446a4.2,4.2,0,0,0,4.2,4.2H17.757L16.73,58.8h-1.8a1.4,1.4,0,1,0,0,2.8H32.846a1.4,1.4,0,1,0,0-2.8h-1.8l-1.026-6.159H43.576a4.2,4.2,0,0,0,4.2-4.2V21.2A4.2,4.2,0,0,0,43.576,17ZM28.207,58.8H19.568l1.026-6.159h6.586ZM44.976,48.446a1.4,1.4,0,0,1-1.4,1.4H4.2a1.4,1.4,0,0,1-1.4-1.4V21.2a1.4,1.4,0,0,1,1.4-1.4H22.488v1.586a1.4,1.4,0,1,0,2.8,0V19.8H43.576a1.4,1.4,0,0,1,1.4,1.4Z" transform="translate(0 -17)"/>
  <path id="Path_7" data-name="Path 7" d="M79.738,122.894a1.546,1.546,0,0,0-1.546,1.546v5.05h-3.5v-10a1.546,1.546,0,1,0-3.092,0v10h-3.5V114.546a1.546,1.546,0,1,0-3.092,0v16.49a1.546,1.546,0,0,0,1.546,1.546H79.738a1.546,1.546,0,0,0,1.546-1.546v-6.6A1.546,1.546,0,0,0,79.738,122.894Z" transform="translate(-60.798 -105.437)"/>
  <path id="Path_8" data-name="Path 8" d="M281.967,121a8.962,8.962,0,0,0-6.409,15.23,1.013,1.013,0,0,0,.145.145A8.965,8.965,0,1,0,281.967,121Zm5.667,7.421h-4.121V124.3A5.9,5.9,0,0,1,287.633,128.421Zm-7.213-4.121v5.026l-3.553,3.553A5.877,5.877,0,0,1,280.421,124.3Zm-1.366,10.765,3.553-3.553h5.026A5.877,5.877,0,0,1,279.054,135.065Z" transform="translate(-247.36 -112.612)"/>
</svg>
