<svg xmlns="http://www.w3.org/2000/svg" width="13.718" height="13.718" viewBox="0 0 13.718 13.718">
  <path id="Icon_awesome-check-circle" data-name="Icon awesome-check-circle" d="M14.281,7.422A6.859,6.859,0,1,1,7.422.563,6.859,6.859,0,0,1,14.281,7.422ZM6.628,11.053l5.089-5.089a.443.443,0,0,0,0-.626l-.626-.626a.443.443,0,0,0-.626,0l-4.15,4.15L4.378,6.925a.443.443,0,0,0-.626,0l-.626.626a.443.443,0,0,0,0,.626L6,11.053a.443.443,0,0,0,.626,0Z" transform="translate(-0.563 -0.563)" fill="#0077d8"/>
</svg>
