<svg id="checked" xmlns="http://www.w3.org/2000/svg" width="14.122" height="14.122" viewBox="0 0 14.122 14.122">
  <g id="Group_127" data-name="Group 127" transform="translate(3.353 1.774)">
    <g id="Group_126" data-name="Group 126">
      <path id="Path_180" data-name="Path 180" d="M131.933,64.484a.532.532,0,0,0-.753,0L124.8,70.851l-2.3-2.5a.532.532,0,0,0-.783.721l2.679,2.909a.532.532,0,0,0,.38.172h.011a.533.533,0,0,0,.376-.155l6.777-6.759A.532.532,0,0,0,131.933,64.484Z" transform="translate(-121.568 -64.327)" fill="#0077d8"/>
    </g>
  </g>
  <g id="Group_129" data-name="Group 129">
    <g id="Group_128" data-name="Group 128">
      <path id="Path_181" data-name="Path 181" d="M13.59,6.529a.532.532,0,0,0-.532.532,6,6,0,1,1-6-6A.532.532,0,1,0,7.061,0a7.061,7.061,0,1,0,7.061,7.061A.532.532,0,0,0,13.59,6.529Z" fill="#0077d8"/>
    </g>
  </g>
</svg>
