<svg xmlns="http://www.w3.org/2000/svg" width="45.387" height="51.864" viewBox="0 0 45.387 51.864">
  <g id="circular-arrows" transform="translate(-31.971 0)">
    <g id="Group_130" data-name="Group 130" transform="translate(31.971 0)">
      <path id="Path_187" data-name="Path 187" d="M155.543,169.057l.245-.245a9.231,9.231,0,0,0,1.349.56v.345a1.557,1.557,0,0,0,1.555,1.555h2.653a1.557,1.557,0,0,0,1.555-1.555v-.346a9.289,9.289,0,0,0,1.349-.56l.245.245a1.559,1.559,0,0,0,2.2,0l1.878-1.878a1.56,1.56,0,0,0,0-2.2l-.245-.245a9.234,9.234,0,0,0,.56-1.349h.345a1.555,1.555,0,0,0,1.552-1.555v-2.653a1.555,1.555,0,0,0-1.552-1.555h-.346a9.3,9.3,0,0,0-.56-1.349l.245-.246a1.56,1.56,0,0,0,0-2.2l-1.877-1.874a1.544,1.544,0,0,0-1.1-.455h0a1.534,1.534,0,0,0-1.093.454l-.245.244a9.294,9.294,0,0,0-1.35-.561V151.3a1.555,1.555,0,0,0-1.555-1.552h-2.653a1.555,1.555,0,0,0-1.555,1.552v.345a9.23,9.23,0,0,0-1.351.56l-.241-.24a1.553,1.553,0,0,0-2.2,0l-1.881,1.878a1.559,1.559,0,0,0,0,2.194l.245.245a9.3,9.3,0,0,0-.56,1.349h-.346a1.555,1.555,0,0,0-1.552,1.555v2.653a1.555,1.555,0,0,0,1.552,1.555h.345a9.24,9.24,0,0,0,.56,1.35l-.248.248a1.559,1.559,0,0,0,0,2.194l1.878,1.878A1.559,1.559,0,0,0,155.543,169.057Zm-3-3,.649-.649a.76.76,0,0,0,.115-.926,7.718,7.718,0,0,1-.847-2.042.76.76,0,0,0-.736-.572h-.916a.035.035,0,0,1-.033-.036v-2.653a.037.037,0,0,1,.033-.036h.916a.759.759,0,0,0,.736-.572,7.773,7.773,0,0,1,.848-2.043.76.76,0,0,0-.116-.925l-.649-.649a.04.04,0,0,1,0-.048l1.881-1.878a.032.032,0,0,1,.047,0l.649.646a.76.76,0,0,0,.925.114,7.713,7.713,0,0,1,2.042-.847.76.76,0,0,0,.572-.736V151.3a.037.037,0,0,1,.036-.033h2.653a.037.037,0,0,1,.036.033v.916a.76.76,0,0,0,.572.736,7.771,7.771,0,0,1,2.043.848.76.76,0,0,0,.924-.115l.653-.65a.025.025,0,0,1,.02-.008h0a.034.034,0,0,1,.026.01l1.875,1.872a.04.04,0,0,1,0,.051l-.649.649a.76.76,0,0,0-.116.925,7.771,7.771,0,0,1,.848,2.043.76.76,0,0,0,.736.572h.916a.037.037,0,0,1,.033.036v2.653a.035.035,0,0,1-.033.036h-.916a.759.759,0,0,0-.736.572,7.717,7.717,0,0,1-.847,2.042.76.76,0,0,0,.115.926l.646.646a.04.04,0,0,1,0,.051l-1.875,1.875a.04.04,0,0,1-.051,0l-.649-.649a.76.76,0,0,0-.925-.116,7.773,7.773,0,0,1-2.043.848.76.76,0,0,0-.572.736v.916a.04.04,0,0,1-.036.036h-2.653a.04.04,0,0,1-.036-.036V168.8a.76.76,0,0,0-.572-.736,7.714,7.714,0,0,1-2.041-.847.76.76,0,0,0-.926.115l-.646.646a.04.04,0,0,1-.051,0l-1.878-1.878A.04.04,0,0,1,152.542,166.056Z" transform="translate(-137.375 -134.574)"/>
      <path id="Path_188" data-name="Path 188" d="M212.034,225.186l2.529,2.263a.76.76,0,0,0,.506.193l.053,0a.76.76,0,0,0,.527-.268l4.806-5.688a.76.76,0,0,0-1.161-.981l-4.3,5.091-1.947-1.742a.76.76,0,1,0-1.013,1.132Z" transform="translate(-193.567 -198.105)"/>
      <path id="Path_189" data-name="Path 189" d="M44.375,39.579A17.09,17.09,0,0,1,51.667,9.1v1.857s0,.009,0,.014a1.991,1.991,0,0,0,1.019,1.774,1.89,1.89,0,0,0,1.94-.122l.033-.023L60.81,8.089a1.909,1.909,0,0,0,.979-1.61,1.909,1.909,0,0,0-.98-1.61L54.659.356,54.626.334a1.889,1.889,0,0,0-1.94-.121,1.991,1.991,0,0,0-1.019,1.774s0,.009,0,.014V3.425A22.494,22.494,0,0,0,39.294,9.219a.76.76,0,0,0,1.029,1.118A20.994,20.994,0,0,1,52.5,4.857a.76.76,0,0,0,.683-.756V2.008a.5.5,0,0,1,.209-.452.384.384,0,0,1,.384.04l6.157,4.517q.028.02.057.038c.17.1.276.228.276.328s-.106.226-.276.328c-.02.012-.039.025-.058.039l-6.156,4.519a.383.383,0,0,1-.384.04.5.5,0,0,1-.209-.452V8.222a.76.76,0,0,0-.854-.754A18.626,18.626,0,0,0,36.051,25.931a18.4,18.4,0,0,0,2.025,8.45,18.78,18.78,0,0,0,5.41,6.43c.017.013.035.025.053.036a1.81,1.81,0,0,1,1,1.571,1.108,1.108,0,0,1-.63.944,1.961,1.961,0,0,1-1.926-.459,21.082,21.082,0,0,1-8.492-16.23V25.189a21.007,21.007,0,0,1,4.431-12.243.76.76,0,1,0-1.2-.932,22.518,22.518,0,0,0-4.75,13.137c0,.008,0,.017,0,.025v1.51c0,.009,0,.017,0,.026a22.594,22.594,0,0,0,9.1,17.408,3.949,3.949,0,0,0,2.332.868,2.7,2.7,0,0,0,1.14-.246,2.625,2.625,0,0,0,1.51-2.226,3.259,3.259,0,0,0-1.681-2.937Z" transform="translate(-31.971 0)"/>
      <path id="Path_190" data-name="Path 190" d="M212.976,78.583a22.9,22.9,0,0,0-6.375-7.778,3.316,3.316,0,0,0-3.325-.76,2.7,2.7,0,0,0-1.7,2.144,3.018,3.018,0,0,0,1.313,2.841,17.09,17.09,0,0,1-7.238,30.515v-1.857s0-.009,0-.014a1.99,1.99,0,0,0-1.016-1.77,1.893,1.893,0,0,0-1.941.117l-.035.024-6.15,4.515a1.813,1.813,0,0,0,0,3.22l6.15,4.515.035.024a1.98,1.98,0,0,0,1.082.331,1.828,1.828,0,0,0,.859-.214,1.99,1.99,0,0,0,1.016-1.77s0-.009,0-.014v-1.428a22.531,22.531,0,0,0,12.022-5.476.76.76,0,0,0-1-1.14,21.025,21.025,0,0,1-11.854,5.183.76.76,0,0,0-.683.756v2.1a.5.5,0,0,1-.209.45.385.385,0,0,1-.385-.038l-6.155-4.518q-.028-.021-.058-.039c-.17-.1-.276-.228-.276-.328s.106-.226.276-.328c.02-.012.039-.025.058-.039l6.155-4.518a.386.386,0,0,1,.386-.038.5.5,0,0,1,.209.45v2.731a.76.76,0,0,0,.854.754,18.622,18.622,0,0,0,16.282-18.463,18.405,18.405,0,0,0-2.034-8.467,18.755,18.755,0,0,0-5.432-6.435,1.529,1.529,0,0,1-.72-1.415,1.179,1.179,0,0,1,.742-.938,1.846,1.846,0,0,1,1.816.515l.021.017a21.181,21.181,0,0,1,3.371,30.165.76.76,0,1,0,1.173.965,22.731,22.731,0,0,0,5.157-14.408,22.465,22.465,0,0,0-2.383-10.135Z" transform="translate(-169.972 -62.787)"/>
    </g>
  </g>
</svg>
