<svg xmlns="http://www.w3.org/2000/svg" width="48.504" height="48.504" viewBox="0 0 48.504 48.504">
  <g id="cloud-computing" transform="translate(-418.874 89.126)">
    <path id="Path_491" data-name="Path 491" d="M7.863,28.42h9.758v8.716a.948.948,0,0,1-.947.947H11.817a3.789,3.789,0,1,0,0,1.895h4.857a2.845,2.845,0,0,0,2.842-2.842V28.42H23.3V41.045a3.789,3.789,0,1,0,1.895,0V28.42h3.789v8.716a2.845,2.845,0,0,0,2.842,2.842h4.857a3.789,3.789,0,1,0,0-1.895H31.831a.948.948,0,0,1-.947-.947V28.42h9.758A7.828,7.828,0,0,0,48.5,20.842a7.771,7.771,0,0,0-6.162-7.356,9.734,9.734,0,0,0-9.2-7.794,11.353,11.353,0,0,0-19.681,0,7.82,7.82,0,0,0-7.5,7.57c0,.09,0,.179.007.267A7.782,7.782,0,0,0,0,20.842,7.828,7.828,0,0,0,7.863,28.42ZM7.14,15.235a.948.948,0,0,0,.815-1.087,5.722,5.722,0,0,1-.093-.885A5.908,5.908,0,0,1,13.8,7.579a.966.966,0,0,0,1.068-.5,9.46,9.46,0,0,1,16.878,0,.965.965,0,0,0,1.069.5,7.789,7.789,0,0,1,7.746,6.814.947.947,0,0,0,.819.843,5.908,5.908,0,0,1,5.231,5.605,5.91,5.91,0,0,1-5.968,5.684H7.863a5.91,5.91,0,0,1-5.968-5.684A5.9,5.9,0,0,1,7.14,15.235Z" transform="translate(418.874 -89.126)" fill="#fff"/>
  </g>
</svg>
