<svg xmlns="http://www.w3.org/2000/svg" width="42.789" height="42.789" viewBox="0 0 42.789 42.789">
  <path id="Contact-email" d="M14.709,18.052H28.08a1.337,1.337,0,0,0,1.337-1.337V15.377A1.337,1.337,0,0,0,28.08,14.04H14.709a1.337,1.337,0,0,0-1.337,1.337v1.337A1.337,1.337,0,0,0,14.709,18.052Zm-1.337,6.686a1.337,1.337,0,0,0,1.337,1.337H28.08a1.337,1.337,0,0,0,1.337-1.337V23.4a1.337,1.337,0,0,0-1.337-1.337H14.709A1.337,1.337,0,0,0,13.372,23.4Zm8.023,10.123a6.676,6.676,0,0,1-3.916-1.269L0,20.965V38.778a4.011,4.011,0,0,0,4.011,4.011H38.778a4.011,4.011,0,0,0,4.011-4.011V20.965L25.311,33.591A6.682,6.682,0,0,1,21.395,34.861ZM41.252,13.618c-.74-.58-1.441-1.126-2.475-1.906V8.023a4.011,4.011,0,0,0-4.011-4.011H28.285l-.755-.548c-1.4-1.025-4.2-3.492-6.135-3.463-1.939-.029-4.729,2.438-6.135,3.463l-.755.548H8.023A4.011,4.011,0,0,0,4.011,8.023v3.689c-1.034.78-1.735,1.326-2.475,1.906A4.011,4.011,0,0,0,0,16.775v.89l8.023,5.8V8.023H34.766V23.46l8.023-5.8v-.89a4.011,4.011,0,0,0-1.537-3.157Z" transform="translate(0 0)" fill="#fff"/>
</svg>
