<svg xmlns="http://www.w3.org/2000/svg" width="286.66" height="340.728" viewBox="0 0 286.66 340.728">
  <g id="flash-on-white" transform="translate(0 0)">
    <g id="Group_110" data-name="Group 110" transform="translate(0 0)">
      <g id="Group_109" data-name="Group 109">
        <path id="Path_131" data-name="Path 131" d="M326.585,84.824a5.324,5.324,0,0,0-.292-1.459c-.063-.182-.109-.358-.189-.534a5.675,5.675,0,0,0-1.147-1.664l-80.265-79.5a5.734,5.734,0,0,0-1.68-1.136c-.178-.08-.356-.125-.533-.187a5.758,5.758,0,0,0-1.485-.3c-.1.017-.206-.045-.333-.045H80.132A5.706,5.706,0,0,0,74.4,5.679V22.715H45.733A5.706,5.706,0,0,0,40,28.394V335.049a5.706,5.706,0,0,0,5.733,5.679H286.527a5.706,5.706,0,0,0,5.733-5.679V306.655h28.666a5.706,5.706,0,0,0,5.733-5.679V85.182C326.66,85.057,326.6,84.949,326.585,84.824ZM246.4,19.387,307.087,79.5H246.4Zm34.4,309.983H51.466V34.073H74.4v266.9a5.706,5.706,0,0,0,5.733,5.679H280.794Zm34.4-34.073H85.866V11.358H234.929V85.182a5.706,5.706,0,0,0,5.733,5.679h74.532Z" transform="translate(-40)" />
      </g>
    </g>
    <g id="bolt_1_" data-name="bolt (1)" transform="translate(105.819 76.875)">
      <path id="Path_221" data-name="Path 221" d="M178.169,35.415,133.844,123.94h29.55l-7.388,78.11L200.332,97.9h-29.55Z" transform="translate(-129.388 -25.832)" />
      <path id="Path_222" data-name="Path 222" d="M140.233,186.979l8.514-86.183h-31.37L170.1,0l-8.6,69.639h30.9ZM126.289,94.564H154.02l-6.259,63.37L184.245,75.87h-28.2l6.175-50.007Z" transform="translate(-117.378)" />
    </g>
  </g>
</svg>
