<svg xmlns="http://www.w3.org/2000/svg" width="50.247" height="46.897" viewBox="0 0 50.247 46.897">
  <g id="knowledge" transform="translate(-16 -40)">
    <path id="Path_191" data-name="Path 191" d="M276.458,103.6a8.693,8.693,0,0,0,1.023-13.2,8.219,8.219,0,0,0-5.93-2.4,8.506,8.506,0,0,0-8.255,8.584,8.64,8.64,0,0,0,3.59,7.015.45.45,0,0,1,.179.369v1.118a2.511,2.511,0,0,0,.419,4.543v.981A2.515,2.515,0,0,0,270,113.121h3.35a2.515,2.515,0,0,0,2.512-2.512v-.981a2.511,2.511,0,0,0,.419-4.543v-1.118A.451.451,0,0,1,276.458,103.6Zm-11.486-7.017a6.825,6.825,0,0,1,6.6-6.906h.1a6.563,6.563,0,0,1,4.634,1.916,7.018,7.018,0,0,1-.821,10.645,2.13,2.13,0,0,0-.883,1.734v.78H268.74v-.78a2.127,2.127,0,0,0-.881-1.732A6.962,6.962,0,0,1,264.971,96.579Zm8.374,14.867H270a.838.838,0,0,1-.837-.837v-.837h5.025v.837A.838.838,0,0,1,273.346,111.446Zm1.675-3.35h-6.7a.837.837,0,0,1,0-1.675h6.7a.837.837,0,0,1,0,1.675Z" transform="translate(-221.409 -42.973)"/>
    <path id="Path_192" data-name="Path 192" d="M351.815,124.748A3.786,3.786,0,0,1,354,127.221a.837.837,0,1,0,1.612-.454,5.473,5.473,0,0,0-3.16-3.57.837.837,0,0,0-.634,1.55Z" transform="translate(-300.195 -74.433)"/>
    <path id="Path_193" data-name="Path 193" d="M336.975,42.512V40.837a.837.837,0,0,0-1.675,0v1.675a.837.837,0,0,0,1.675,0Z" transform="translate(-285.876)"/>
    <path id="Path_194" data-name="Path 194" d="M284.75,54.269a.838.838,0,0,0,.764-1.178l-.681-1.53a.837.837,0,0,0-1.53.681l.681,1.53A.837.837,0,0,0,284.75,54.269Z" transform="translate(-239.257 -9.906)"/>
    <path id="Path_195" data-name="Path 195" d="M242.257,85.147a.837.837,0,0,0,.561-1.46l-1.245-1.121a.838.838,0,1,0-1.121,1.245l1.245,1.12A.834.834,0,0,0,242.257,85.147Z" transform="translate(-200.708 -37.918)"/>
    <path id="Path_196" data-name="Path 196" d="M216.788,130.058a.837.837,0,0,0-.538-1.055l-1.593-.517a.837.837,0,1,0-.517,1.593l1.593.518a.836.836,0,0,0,1.055-.538Z" transform="translate(-176.881 -79.186)"/>
    <path id="Path_197" data-name="Path 197" d="M210.415,179.711l-1.666.175a.837.837,0,1,0,.175,1.666l1.666-.175a.837.837,0,1,0-.175-1.666Z" transform="translate(-171.901 -125.082)"/>
    <path id="Path_198" data-name="Path 198" d="M447.435,181.377l1.666.175a.837.837,0,1,0,.175-1.666l-1.666-.175a.837.837,0,0,0-.175,1.666Z" transform="translate(-385.601 -125.082)"/>
    <path id="Path_199" data-name="Path 199" d="M442.648,130.637a.836.836,0,0,0,.259-.041l1.593-.517a.837.837,0,0,0-.518-1.593l-1.593.517a.837.837,0,0,0,.258,1.634Z" transform="translate(-381.236 -79.186)"/>
    <path id="Path_200" data-name="Path 200" d="M419.929,84.934l1.245-1.12a.838.838,0,0,0-1.121-1.245l-1.245,1.12a.837.837,0,1,0,1.121,1.244Z" transform="translate(-360.394 -37.92)"/>
    <path id="Path_201" data-name="Path 201" d="M381.692,54.269a.837.837,0,0,0,.766-.5l.681-1.53a.837.837,0,1,0-1.53-.681l-.681,1.53a.838.838,0,0,0,.764,1.178Z" transform="translate(-326.662 -9.906)"/>
    <path id="Path_202" data-name="Path 202" d="M63.734,295.074H52.847v-.837c0-1.257-1.636-2.173-2.138-2.424a.841.841,0,0,0-.134-.053l-8.2-2.459c-.519-.458-2.373-2.067-4.639-3.7-3.619-2.605-6.425-3.926-8.341-3.926H22.7v-.837a.837.837,0,0,0-.837-.837H16.837a.837.837,0,0,0-.837.837v18.424a.837.837,0,0,0,.837.837h5.025a.837.837,0,0,0,.837-.837v-.837h2.473c.522.069,4.8.913,8.574,1.659,7.556,1.492,8.624,1.691,8.859,1.691H63.734a2.515,2.515,0,0,0,2.512-2.512v-1.675a2.515,2.515,0,0,0-2.512-2.512Zm-42.71,3.35h-3.35V281.675h3.35Zm43.547.837a.838.838,0,0,1-.837.837H42.645c-.522-.07-4.8-.913-8.573-1.659-7.557-1.492-8.624-1.691-8.86-1.691H22.7v-13.4h6.7c3.169,0,9.738,5.285,12,7.322a.839.839,0,0,0,.319.18l8.3,2.49a3.124,3.124,0,0,1,1.151.92v1.649a.839.839,0,0,1-.769.835l-8.145-1.629-5.744-3.282a.837.837,0,0,0-.831,1.454l5.862,3.35a.838.838,0,0,0,.251.094l8.374,1.675a.843.843,0,0,0,.164.016,2.517,2.517,0,0,0,2.369-1.675h11.03a.838.838,0,0,1,.837.837Z" transform="translate(0 -214.877)"/>
  </g>
</svg>
