<svg xmlns="http://www.w3.org/2000/svg" width="37.563" height="38.823" viewBox="0 0 37.563 38.823">
  <g id="like" transform="translate(0 -10.667)">
    <g id="Group_288" data-name="Group 288" transform="translate(0 10.667)">
      <g id="Group_287" data-name="Group 287" transform="translate(0 0)">
        <path id="Path_489" data-name="Path 489" d="M37.563,33.876a3.9,3.9,0,0,0-1.019-2.657,4.4,4.4,0,0,0,1-3.222,4.162,4.162,0,0,0-4.082-3.827H23.8a25.94,25.94,0,0,0,1.246-6.752c0-3.661-2.884-6.752-4.7-6.752a4.711,4.711,0,0,0-2.836,1.028.871.871,0,0,0-.294.66v5.724L12.707,28.61l-.186.1V28.39a.815.815,0,0,0-.783-.844H3.913A4.079,4.079,0,0,0,0,31.766v13.5a4.079,4.079,0,0,0,3.913,4.22h4.7a3.951,3.951,0,0,0,3.683-2.79,9.6,9.6,0,0,0,4.143,1.1H30.8a3.661,3.661,0,0,0,3.547-2.947,4.081,4.081,0,0,0-.282-2.537A3.822,3.822,0,0,0,36,38.94a4,4,0,0,0-.366-1.686A3.823,3.823,0,0,0,37.563,33.876Zm-3.3,2.083a.8.8,0,0,0-.654.572.892.892,0,0,0,.207.881,2.163,2.163,0,0,1,.618,1.528A2.053,2.053,0,0,1,32.7,41.023a.8.8,0,0,0-.654.572.892.892,0,0,0,.207.881,2.193,2.193,0,0,1,.567,2.014A2.054,2.054,0,0,1,30.8,46.114H16.434a7.062,7.062,0,0,1-4.141-1.442.748.748,0,0,0-.853-.182.847.847,0,0,0-.484.78A2.448,2.448,0,0,1,8.608,47.8h-4.7A2.448,2.448,0,0,1,1.565,45.27v-13.5a2.448,2.448,0,0,1,2.348-2.532h7.043v.844a.864.864,0,0,0,.372.719.749.749,0,0,0,.761.035l1.565-.844a.817.817,0,0,0,.36-.4l4.7-10.972a.917.917,0,0,0,.072-.354v-5.45a3.122,3.122,0,0,1,1.565-.457c.858,0,3.13,2.3,3.13,5.064a28.008,28.008,0,0,1-1.513,7.3.907.907,0,0,0,.086.78.772.772,0,0,0,.645.365h10.77a2.536,2.536,0,0,1,2.523,2.294,2.587,2.587,0,0,1-1.114,2.388.879.879,0,0,0,.053,1.47A2.112,2.112,0,0,1,36,33.876,2.053,2.053,0,0,1,34.262,35.959Z" transform="translate(0 -10.667)" fill="#fff"/>
      </g>
    </g>
    <g id="Group_290" data-name="Group 290" transform="translate(10.777 23.648)">
      <g id="Group_289" data-name="Group 289">
        <path id="Path_490" data-name="Path 490" d="M150.41,245.333a1.077,1.077,0,0,0-1.077,1.077v19.381a1.077,1.077,0,1,0,2.154,0V246.41A1.077,1.077,0,0,0,150.41,245.333Z" transform="translate(-149.333 -245.333)" fill="#fff"/>
      </g>
    </g>
  </g>
</svg>
