<svg xmlns="http://www.w3.org/2000/svg" width="35.871" height="35.871" viewBox="0 0 35.871 35.871">
  <path id="phone-in-talk" d="M38.378,29.41a22.639,22.639,0,0,1-7.114-1.136,2.034,2.034,0,0,0-2.033.478l-4.384,4.384A29.983,29.983,0,0,1,11.714,20L16.1,15.6a1.913,1.913,0,0,0,.5-1.993,22.639,22.639,0,0,1-1.136-7.114A2,2,0,0,0,13.468,4.5H6.493A2,2,0,0,0,4.5,6.493,33.875,33.875,0,0,0,38.378,40.371a2,2,0,0,0,1.993-1.993V31.4A2,2,0,0,0,38.378,29.41Zm-1.993-6.975h3.986A17.937,17.937,0,0,0,22.436,4.5V8.486A13.94,13.94,0,0,1,36.385,22.436Zm-7.971,0H32.4a9.968,9.968,0,0,0-9.964-9.964v3.986A5.971,5.971,0,0,1,28.414,22.436Z" transform="translate(-4.5 -4.5)" fill="#fff"/>
</svg>
