<svg id="responsive" xmlns="http://www.w3.org/2000/svg" width="43.937" height="35.949" viewBox="0 0 43.937 35.949">
  <g id="Group_40" data-name="Group 40" transform="translate(22.967 24.964)">
    <g id="Group_39" data-name="Group 39">
      <circle id="Ellipse_4" data-name="Ellipse 4" cx="0.999" cy="0.999" r="0.999" fill="#fff"/>
    </g>
  </g>
  <g id="Group_42" data-name="Group 42" transform="translate(5.992 30.956)">
    <g id="Group_41" data-name="Group 41" transform="translate(0 0)">
      <circle id="Ellipse_5" data-name="Ellipse 5" cx="0.999" cy="0.999" r="0.999" fill="#fff"/>
    </g>
  </g>
  <g id="Group_44" data-name="Group 44" transform="translate(3.994)">
    <g id="Group_43" data-name="Group 43">
      <path id="Path_26" data-name="Path 26" d="M83.493,46.545H49.542a2.942,2.942,0,0,0-3,3v9.986a1,1,0,1,0,2,0V49.541a.943.943,0,0,1,1-1H83.493a.943.943,0,0,1,1,1V73.507a.943.943,0,0,1-1,1H59.527a1,1,0,0,0,0,2h2v3a.943.943,0,0,1-1,1h-1a1,1,0,0,0,0,2h13.98a1,1,0,0,0,0-2h-1a.943.943,0,0,1-1-1v-3H83.493a2.942,2.942,0,0,0,3-3V49.541A2.942,2.942,0,0,0,83.493,46.545ZM63.322,80.5a2.954,2.954,0,0,0,.2-1v-3h5.991v3a2.955,2.955,0,0,0,.2,1Z" transform="translate(-46.546 -46.545)" fill="#fff"/>
    </g>
  </g>
  <g id="Group_46" data-name="Group 46" transform="translate(15.977 21.969)">
    <g id="Group_45" data-name="Group 45">
      <path id="Path_27" data-name="Path 27" d="M209.149,302.545H187.181a1,1,0,0,0,0,2h21.969a1,1,0,1,0,0-2Z" transform="translate(-186.182 -302.545)" fill="#fff"/>
    </g>
  </g>
  <g id="Group_48" data-name="Group 48" transform="translate(0 15.977)">
    <g id="Group_47" data-name="Group 47">
      <path id="Path_28" data-name="Path 28" d="M10.984,232.727H3a2.942,2.942,0,0,0-3,3V249.7a2.942,2.942,0,0,0,3,3h7.989a2.942,2.942,0,0,0,3-3v-13.98A2.942,2.942,0,0,0,10.984,232.727Zm1,16.976a.943.943,0,0,1-1,1H3a.943.943,0,0,1-1-1v-13.98a.943.943,0,0,1,1-1h7.989a.943.943,0,0,1,1,1Z" transform="translate(0 -232.727)" fill="#fff"/>
    </g>
  </g>
</svg>
