<svg id="secure-shield" xmlns="http://www.w3.org/2000/svg" width="47.648" height="55.872" viewBox="0 0 47.648 55.872">
  <g id="Group_30" data-name="Group 30" transform="translate(0 0)">
    <g id="Group_29" data-name="Group 29">
      <path id="Path_9" data-name="Path 9" d="M84.464,9.648A92.939,92.939,0,0,1,62.1.163a1.175,1.175,0,0,0-1.195,0A90.394,90.394,0,0,1,38.546,9.648a1.175,1.175,0,0,0-.865,1.134V22.79A34.547,34.547,0,0,0,48.172,48.031c5.152,5.049,11.154,7.841,13.333,7.841s8.181-2.792,13.333-7.841A34.547,34.547,0,0,0,85.329,22.79V10.781A1.175,1.175,0,0,0,84.464,9.648ZM82.978,22.79a32.243,32.243,0,0,1-9.785,23.562c-5.067,4.965-10.484,7.169-11.688,7.169s-6.622-2.2-11.688-7.169A32.244,32.244,0,0,1,40.032,22.79V11.673A92.56,92.56,0,0,0,61.505,2.537a95.49,95.49,0,0,0,21.473,9.136Z" transform="translate(-37.681 0)" />
      <path id="Path_10" data-name="Path 10" d="M89.08,99.688a1.175,1.175,0,0,0-1.524-.663c-2.1.827-4.255,1.589-6.405,2.263a1.175,1.175,0,0,0-.824,1.121v4.539a1.175,1.175,0,1,0,2.351,0v-3.68c1.929-.624,3.856-1.315,5.74-2.057A1.175,1.175,0,0,0,89.08,99.688Z" transform="translate(-75.673 -88.146)" />
      <path id="Path_11" data-name="Path 11" d="M171.38,88.563a1.176,1.176,0,0,0,.471-.1l.022-.009a1.175,1.175,0,1,0-.949-2.15l-.019.008a1.175,1.175,0,0,0,.475,2.25Z" transform="translate(-155.741 -76.798)" />
      <path id="Path_12" data-name="Path 12" d="M312.169,345.72a1.176,1.176,0,0,0-1.627.341,28.608,28.608,0,0,1-3.378,4.219,30.029,30.029,0,0,1-3.371,3,1.175,1.175,0,1,0,1.425,1.869,32.392,32.392,0,0,0,3.636-3.235,30.921,30.921,0,0,0,3.656-4.567A1.175,1.175,0,0,0,312.169,345.72Z" transform="translate(-274.342 -307.823)" />
      <path id="Path_13" data-name="Path 13" d="M277.218,432.127l-.067.04a1.175,1.175,0,1,0,1.177,2.034l.078-.046a1.175,1.175,0,1,0-1.188-2.028Z" transform="translate(-250.496 -384.828)" />
      <path id="Path_14" data-name="Path 14" d="M129.343,163.266a3.822,3.822,0,1,0-5.4,5.405l6.94,6.94a3.823,3.823,0,0,0,5.4,0l14.487-14.488a3.822,3.822,0,0,0-5.405-5.4L133.581,167.5Zm17.684-5.885a1.471,1.471,0,1,1,2.081,2.081l-14.487,14.487a1.472,1.472,0,0,1-2.081,0l-6.94-6.939a1.471,1.471,0,0,1,2.081-2.081L132.75,170a1.175,1.175,0,0,0,1.662,0Z" transform="translate(-113.53 -137.728)" />
    </g>
  </g>
</svg>
