<svg xmlns="http://www.w3.org/2000/svg" width="35.666" height="47.619" viewBox="0 0 35.666 47.619">
  <g id="template" transform="translate(-64.262 0)">
    <g id="Group_131" data-name="Group 131" transform="translate(64.262 0)">
      <path id="Path_203" data-name="Path 203" d="M98.206,47.619H65.984A1.724,1.724,0,0,1,64.262,45.9v-13a.7.7,0,0,1,1.4,0v13a.324.324,0,0,0,.323.323H98.206a.324.324,0,0,0,.323-.323V1.722a.324.324,0,0,0-.323-.323H65.984a.324.324,0,0,0-.323.323V29.632a.7.7,0,0,1-1.4,0V1.722A1.724,1.724,0,0,1,65.984,0H98.206a1.724,1.724,0,0,1,1.722,1.722V45.9a1.724,1.724,0,0,1-1.722,1.722Z" transform="translate(-64.262 0)"/>
    </g>
    <g id="Group_133" data-name="Group 133" transform="translate(69.037 3.443)">
      <g id="Group_132" data-name="Group 132">
        <path id="Path_204" data-name="Path 204" d="M116.055,43.7a.7.7,0,0,0,.9-.4l.327-.857h2.248l.323.855a.7.7,0,0,0,1.309-.494l-1.982-5.251-.008-.019a.817.817,0,0,0-.758-.508h0a.817.817,0,0,0-.758.51l-.006.016-2,5.251a.7.7,0,0,0,.4.9Zm2.358-4.226L119,41.037h-1.187Z" transform="translate(-115.604 -37.019)"/>
        <path id="Path_205" data-name="Path 205" d="M183.355,64.028a2.111,2.111,0,0,0,.817-.164.7.7,0,0,0,1.306-.346V60.291a.7.7,0,0,0-1.306-.346,2.123,2.123,0,1,0-.817,4.083Zm0-2.848a.725.725,0,1,1-.725.725A.725.725,0,0,1,183.355,61.18Z" transform="translate(-175.128 -57.493)"/>
        <path id="Path_206" data-name="Path 206" d="M245.656,95.682h12.686a.7.7,0,1,0,0-1.4H245.656a.7.7,0,0,0,0,1.4Z" transform="translate(-232.926 -88.957)"/>
        <path id="Path_207" data-name="Path 207" d="M141.023,129.633H116.306a.7.7,0,1,0,0,1.4h24.716a.7.7,0,1,0,0-1.4Z" transform="translate(-115.607 -121.019)"/>
        <path id="Path_208" data-name="Path 208" d="M140.737,166.26h-4.054a.7.7,0,0,0,0,1.4h3.64v4.286H117v-4.286h16.438a.7.7,0,0,0,0-1.4H116.59a.985.985,0,0,0-.984.984v5.114a.985.985,0,0,0,.984.984h24.147a.985.985,0,0,0,.984-.984v-5.114A.985.985,0,0,0,140.737,166.26Z" transform="translate(-115.606 -154.24)"/>
        <path id="Path_209" data-name="Path 209" d="M123.548,261.963H116.59a.985.985,0,0,0-.984.984v17.843a.985.985,0,0,0,.984.984h6.958a.985.985,0,0,0,.984-.984V262.947a.985.985,0,0,0-.984-.984Zm-.414,18.413H117V263.362h6.129Z" transform="translate(-115.606 -241.042)"/>
        <path id="Path_210" data-name="Path 210" d="M298.654,261.963H290.1a.7.7,0,0,0,0,1.4h8.552a.7.7,0,1,0,0-1.4Z" transform="translate(-273.238 -241.042)"/>
        <path id="Path_211" data-name="Path 211" d="M248.8,294.959H235.13a.7.7,0,1,0,0,1.4H248.8a.7.7,0,1,0,0-1.4Z" transform="translate(-223.379 -270.969)"/>
        <path id="Path_212" data-name="Path 212" d="M248.8,327.955H235.13a.7.7,0,1,0,0,1.4H248.8a.7.7,0,1,0,0-1.4Z" transform="translate(-223.379 -300.896)"/>
        <path id="Path_213" data-name="Path 213" d="M248.8,360.952H235.13a.7.7,0,1,0,0,1.4H248.8a.7.7,0,1,0,0-1.4Z" transform="translate(-223.379 -330.824)"/>
        <path id="Path_214" data-name="Path 214" d="M248.8,393.948H235.13a.7.7,0,0,0,0,1.4H248.8a.7.7,0,1,0,0-1.4Z" transform="translate(-223.379 -360.751)"/>
        <path id="Path_215" data-name="Path 215" d="M248.8,426.945H235.13a.7.7,0,1,0,0,1.4H248.8a.7.7,0,1,0,0-1.4Z" transform="translate(-223.379 -390.679)"/>
        <path id="Path_216" data-name="Path 216" d="M245.03,459.941h-9.9a.7.7,0,1,0,0,1.4h9.9a.7.7,0,1,0,0-1.4Z" transform="translate(-223.379 -420.606)"/>
      </g>
    </g>
  </g>
</svg>
