<svg id="think" xmlns="http://www.w3.org/2000/svg" width="39.3" height="46.501" viewBox="0 0 39.3 46.501">
  <path id="Path_32" data-name="Path 32" d="M37.516,64.37H30a2.427,2.427,0,0,1-2.426-2.533V56.783a.628.628,0,0,1,1.256,0v5.054A1.18,1.18,0,0,0,30,63.115h7.515a1.542,1.542,0,0,0,1.561-1.278V56.783a.628.628,0,0,1,1.256,0v5.054a2.758,2.758,0,0,1-2.818,2.533Z" transform="translate(-14.303 -20.156)" fill="#fff"/>
  <path id="Path_33" data-name="Path 33" d="M37.033,40.729h-11.5a1.359,1.359,0,0,1-1.36-1.04,13.393,13.393,0,0,0-3.807-6.579,12.306,12.306,0,0,1,.893-18.178,15.591,15.591,0,0,1,20.05,0A12.306,12.306,0,0,1,42.2,33.11a13.4,13.4,0,0,0-3.809,6.579,1.359,1.359,0,0,1-1.359,1.04ZM31.274,12.544a13.247,13.247,0,0,0-11.938,6.984A11.05,11.05,0,0,0,21.407,32.28a14.564,14.564,0,0,1,4.128,7.181l11.491.011a14.607,14.607,0,0,1,4.135-7.192,11.056,11.056,0,0,0,2.242-12.4A13.1,13.1,0,0,0,32.15,12.57Q31.711,12.545,31.274,12.544Z" transform="translate(-11.632 -5.996)" fill="#fff"/>
  <path id="Path_34" data-name="Path 34" d="M36.039,70.776a2.862,2.862,0,0,1-2.857-2.858.677.677,0,0,1,.628-.683h4.46a.628.628,0,0,1,.628.628,2.874,2.874,0,0,1-2.86,2.913Zm-1.495-2.285a1.6,1.6,0,0,0,2.99,0Z" transform="translate(-16.388 -24.275)" fill="#fff"/>
  <path id="Path_35" data-name="Path 35" d="M26.828,61.018a.628.628,0,0,1-.063-1.253L39.9,58.419a.628.628,0,1,1,.126,1.25L26.891,61.014a.559.559,0,0,1-.063,0Z" transform="translate(-13.797 -20.996)" fill="#fff"/>
  <path id="Path_36" data-name="Path 36" d="M26.963,65.131a.629.629,0,1,1-.063-1.256l13.038-1.336a.628.628,0,1,1,.126,1.25L27.027,65.128a.548.548,0,0,1-.064,0Z" transform="translate(-13.832 -22.527)" fill="#fff"/>
  <path id="Path_37" data-name="Path 37" d="M37.28,6.7a.628.628,0,0,1-.628-.628V3.5a.628.628,0,1,1,1.256,0V6.072A.628.628,0,0,1,37.28,6.7Z" transform="translate(-17.682 -2.868)" fill="#fff"/>
  <path id="Path_38" data-name="Path 38" d="M24.507,10.166a.628.628,0,0,1-.545-.314L22.676,7.623A.628.628,0,1,1,23.764,7l1.287,2.229a.628.628,0,0,1-.543.942Z" transform="translate(-13.1 -4.285)" fill="#fff"/>
  <path id="Path_39" data-name="Path 39" d="M15.166,19.548a.623.623,0,0,1-.314-.084l-2.228-1.287a.628.628,0,1,1,.628-1.087l2.228,1.287a.628.628,0,0,1-.314,1.172Z" transform="translate(-9.964 -7.58)" fill="#fff"/>
  <path id="Path_40" data-name="Path 40" d="M11.79,32.348H9.214a.628.628,0,1,1,0-1.256H11.79a.628.628,0,1,1,0,1.256Z" transform="translate(-8.586 -12.314)" fill="#fff"/>
  <path id="Path_41" data-name="Path 41" d="M13.028,45.647a.628.628,0,0,1-.314-1.172l2.229-1.287a.628.628,0,0,1,.628,1.089l-2.229,1.287a.628.628,0,0,1-.314.084Z" transform="translate(-10.004 -16.288)" fill="#fff"/>
  <path id="Path_42" data-name="Path 42" d="M49.45,10.166a.628.628,0,0,1-.543-.942L50.19,7a.628.628,0,1,1,1.088.628L49.992,9.852A.628.628,0,0,1,49.45,10.166Z" transform="translate(-21.554 -4.285)" fill="#fff"/>
  <path id="Path_43" data-name="Path 43" d="M58.228,19.548a.628.628,0,0,1-.314-1.172l2.228-1.287a.628.628,0,1,1,.628,1.087l-2.228,1.287A.623.623,0,0,1,58.228,19.548Z" transform="translate(-24.125 -7.58)" fill="#fff"/>
  <path id="Path_44" data-name="Path 44" d="M63.976,32.348H61.4a.628.628,0,1,1,0-1.256h2.576a.628.628,0,1,1,0,1.256Z" transform="translate(-25.304 -12.314)" fill="#fff"/>
  <path id="Path_45" data-name="Path 45" d="M60.372,45.647a.633.633,0,0,1-.314-.084L57.83,44.277a.628.628,0,0,1,.628-1.089l2.228,1.287a.628.628,0,0,1-.314,1.172Z" transform="translate(-24.094 -16.288)" fill="#fff"/>
  <path id="Path_46" data-name="Path 46" d="M31.247,49.429a.628.628,0,0,1-.611-.486L27.59,35.876a.628.628,0,0,1,.831-.731L31.268,36.2l2.362-1.427a.628.628,0,0,1,.65,0L36.642,36.2l2.845-1.057a.628.628,0,0,1,.831.731L37.274,48.943a.628.628,0,0,1-1.224-.285l2.778-11.929-2.033.754a.633.633,0,0,1-.544-.052l-2.3-1.384-2.3,1.387a.628.628,0,0,1-.544.052l-2.034-.754,2.781,11.927a.628.628,0,0,1-.47.754.653.653,0,0,1-.145.017Z" transform="translate(-14.304 -12.971)" fill="#fff"/>
</svg>
