<svg id="value" xmlns="http://www.w3.org/2000/svg" width="79.888" height="79.928" viewBox="0 0 79.888 79.928">
  <path id="Path_47" data-name="Path 47" d="M96.035,285.438l-.41.221a5.654,5.654,0,0,0-6.718-1.682l-.023.012-.969.522a7.357,7.357,0,0,0-8.425-.761l-5.217,2.837H67.332a10.028,10.028,0,0,1-4.34-.995l-.955-.462a16.382,16.382,0,0,0-17.049,1.665c-.023.017-.045.035-.066.054L42.616,288.9a8,8,0,0,1-3.018,1.682l-1.309-4.3a1.038,1.038,0,0,0-.993-.735H26.146a1.038,1.038,0,0,0-1.03,1.164l3.717,30.475a1.038,1.038,0,0,0,1.03.912H46.587a1.038,1.038,0,0,0,.993-1.341l-2.2-7.21,6.843-4.325a4.118,4.118,0,0,1,3-.389l.065.014,13.919,2.563a18.012,18.012,0,0,0,11.13-1.572,1.011,1.011,0,0,0,.127-.074l24.075-16.53a1.038,1.038,0,0,0,.3-1.391A6.608,6.608,0,0,0,96.035,285.438Zm-6.179.385a3.545,3.545,0,0,1,3.876.857L84.6,291.605l-.536.282a7.916,7.916,0,0,0-1.25-2.272Zm-9.361-.257.025-.014a5.279,5.279,0,0,1,5.369.05l-4.642,2.5a7.887,7.887,0,0,0-2.965-1.334ZM30.781,316.025l-3.463-28.4h9.208l8.658,28.4Zm48.575-12.011a15.922,15.922,0,0,1-9.771,1.358L55.7,302.815a6.189,6.189,0,0,0-4.513.612l-.048.029-6.386,4.037L40.2,292.571a10.081,10.081,0,0,0,3.792-2.12l2.273-2.024A14.313,14.313,0,0,1,61.132,287l.955.462a12.116,12.116,0,0,0,5.244,1.2h9.26a5.856,5.856,0,0,1,5.743,4.756l-6.711-.3a40.19,40.19,0,0,0-7.3.338,1.038,1.038,0,1,0,.285,2.056,38.054,38.054,0,0,1,6.925-.32l7.9.357h.047a1.038,1.038,0,0,0,1.038-1.038c0-.168-.007-.334-.017-.5l1.083-.571,11.444-6.172a4.535,4.535,0,0,1,5.457.875Z" transform="translate(-25.108 -238.173)"/>
  <path id="Path_48" data-name="Path 48" d="M76.974,434.566a3.268,3.268,0,1,0,3.268-3.268A3.268,3.268,0,0,0,76.974,434.566Zm3.268-1.192a1.192,1.192,0,1,1-1.192,1.192,1.192,1.192,0,0,1,1.192-1.192Z" transform="translate(-68.001 -361.008)"/>
  <path id="Path_49" data-name="Path 49" d="M226.292,36.288v-3.42a7.879,7.879,0,1,0-15.758,0v3.42a7.879,7.879,0,1,0,15.758,0Zm-13.682,0v-3.42a5.8,5.8,0,1,1,11.606,0v3.42a5.8,5.8,0,1,1-11.606,0Z" transform="translate(-178.456 -24.989)"/>
  <path id="Path_50" data-name="Path 50" d="M89.491,159.567h25.4a1.038,1.038,0,0,0,1.038-1.038v-2.383h17.388a1.038,1.038,0,0,0,1.038-1.038v-6.737a7.78,7.78,0,0,0-7.285-7.76A1.212,1.212,0,0,0,126,141.2a4.763,4.763,0,0,1-7.515-.184,1.038,1.038,0,0,0-.861-.421,7.7,7.7,0,0,0-3.818,1.114,8.726,8.726,0,0,0-6.09-3.02,1.262,1.262,0,0,0-1.07.623,5.589,5.589,0,0,1-8.819-.215,1.035,1.035,0,0,0-.861-.421,8.687,8.687,0,0,0-6.028,2.63c-.131.134-.256.273-.377.414a7.718,7.718,0,0,0-3.539-1.111,1.214,1.214,0,0,0-1.069.591,4.763,4.763,0,0,1-7.515-.184,1.041,1.041,0,0,0-.861-.421A7.777,7.777,0,0,0,70,148.371v6.737a1.038,1.038,0,0,0,1.038,1.038H88.453v2.383A1.038,1.038,0,0,0,89.491,159.567Zm27.691-16.86a6.84,6.84,0,0,0,10.241.027,5.707,5.707,0,0,1,4.855,5.637v5.7h-16.35v-6.659a8.684,8.684,0,0,0-.959-3.974A5.61,5.61,0,0,1,117.182,142.707ZM96.52,140.786a7.666,7.666,0,0,0,11.579.027,6.667,6.667,0,0,1,5.754,6.6v10.079H90.529V147.411A6.706,6.706,0,0,1,96.52,140.786ZM72.076,154.07v-5.7a5.74,5.74,0,0,1,5.061-5.664,6.84,6.84,0,0,0,10.24.026,5.663,5.663,0,0,1,2.026.715,8.7,8.7,0,0,0-.949,3.963v6.659Z" transform="translate(-62.234 -119.01)"/>
  <path id="Path_51" data-name="Path 51" d="M345.181,60.28V57.286a7.026,7.026,0,1,0-14.051,0V60.28a7.026,7.026,0,1,0,14.051,0Zm-11.976,0V57.286a4.95,4.95,0,0,1,9.9,0V60.28a4.95,4.95,0,0,1-9.9,0Z" transform="translate(-278.189 -45.888)"/>
  <path id="Path_52" data-name="Path 52" d="M113.7,60.28V57.286a7.026,7.026,0,1,0-14.051,0V60.28a7.026,7.026,0,1,0,14.051,0Zm-11.976,0V57.286a4.95,4.95,0,0,1,9.9,0V60.28a4.95,4.95,0,0,1-9.9,0Z" transform="translate(-86.751 -45.888)"/>
</svg>
