<svg xmlns="http://www.w3.org/2000/svg" width="79.766" height="79.766" viewBox="0 0 79.766 79.766">
  <g id="XMLID_1248_" transform="translate(0 0)">
    <g id="XMLID_871_" transform="translate(0 0)">
      <path id="XMLID_874_" d="M80.852,153.241h34.021a1.558,1.558,0,1,0,0-3.116H80.852a1.558,1.558,0,1,0,0,3.116Z" transform="translate(-66.941 -126.737)" />
      <path id="XMLID_887_" d="M132.392,97.241h17.962a1.558,1.558,0,1,0,0-3.116H132.392a1.558,1.558,0,0,0,0,3.116Z" transform="translate(-110.451 -79.461)" />
      <path id="XMLID_917_" d="M80.852,209.241h34.021a1.558,1.558,0,1,0,0-3.116H80.852a1.558,1.558,0,1,0,0,3.116Z" transform="translate(-66.941 -174.012)" />
      <path id="XMLID_919_" d="M84.461,310.969a1.909,1.909,0,0,1,2.051,1.718,1.558,1.558,0,1,0,3.116,0,4.89,4.89,0,0,0-3.609-4.609v-.217a1.558,1.558,0,0,0-3.116,0v.217a4.89,4.89,0,0,0-3.61,4.609,5.015,5.015,0,0,0,5.167,4.834,1.745,1.745,0,1,1-2.052,1.718,1.558,1.558,0,1,0-3.116,0,4.89,4.89,0,0,0,3.61,4.609v.217a1.558,1.558,0,0,0,3.116,0v-.217a4.89,4.89,0,0,0,3.609-4.609,5.014,5.014,0,0,0-5.167-4.834,1.745,1.745,0,1,1,0-3.436Z" transform="translate(-66.941 -258.584)" />
      <path id="XMLID_920_" d="M97.862,262.125H80.852a1.558,1.558,0,1,0,0,3.116h17.01a1.558,1.558,0,0,0,0-3.116Z" transform="translate(-66.941 -221.288)" />
      <path id="XMLID_1032_" d="M79.309,53.626,61.382,35.7V1.558A1.558,1.558,0,0,0,59.824,0H1.558A1.558,1.558,0,0,0,0,1.558v76.65a1.558,1.558,0,0,0,1.558,1.558h73.6a1.558,1.558,0,0,0,1.558-1.558V56.286h1.495a1.558,1.558,0,0,0,1.1-2.66ZM3.116,3.116h55.15v29.5a1.555,1.555,0,0,0-1.988.178L35.45,53.626a1.558,1.558,0,0,0,1.1,2.66h1.5V76.65H3.116ZM51.927,76.65V63.141H62.832V76.65Zm21.67,0H65.948V61.583a1.558,1.558,0,0,0-1.558-1.558H50.369a1.558,1.558,0,0,0-1.558,1.558V76.65H41.162V56.286h9.207a1.558,1.558,0,1,0,0-3.116H40.312L57.379,36.1,74.446,53.17H64.39a1.558,1.558,0,0,0,0,3.116H73.6V76.65Z" transform="translate(0 0)" />
      <path id="XMLID_1035_" d="M359.868,341.29a1.559,1.559,0,1,0,1.1.456A1.566,1.566,0,0,0,359.868,341.29Z" transform="translate(-302.488 -288.12)" />
    </g>
  </g>
</svg>
